<svg width="13" height="13" viewBox="0 0 13 13" fill="none" xmlns="http://www.w3.org/2000/svg">
<path d="M11.8359 10.8828C12.0469 11.1172 12.0469 11.4688 11.8125 11.6797L11.1562 12.3359C10.9453 12.5703 10.5938 12.5703 10.3594 12.3359L8.03906 10.0156C7.92188 9.89844 7.875 9.75781 7.875 9.61719V9.21875C7.03125 9.875 6 10.25 4.875 10.25C2.17969 10.25 0 8.07031 0 5.375C0 2.70312 2.17969 0.5 4.875 0.5C7.54688 0.5 9.75 2.70312 9.75 5.375C9.75 6.52344 9.35156 7.55469 8.71875 8.375H9.09375C9.23438 8.375 9.375 8.44531 9.49219 8.53906L11.8359 10.8828ZM4.875 8.375C6.51562 8.375 7.875 7.03906 7.875 5.375C7.875 3.73438 6.51562 2.375 4.875 2.375C3.21094 2.375 1.875 3.73438 1.875 5.375C1.875 7.03906 3.21094 8.375 4.875 8.375Z" fill="#667085"/>
</svg>
